<?xml version="1.0" encoding="utf-8"?>
<!-- Generator: Adobe Illustrator 23.0.6, SVG Export Plug-In . SVG Version: 6.00 Build 0)  -->
<svg version="1.1" id="Layer_1" xmlns="http://www.w3.org/2000/svg" xmlns:xlink="http://www.w3.org/1999/xlink" x="0px" y="0px"
	 viewBox="0 0 667 200" style="enable-background:new 0 0 667 200;" xml:space="preserve">
<style type="text/css">
	.st0{fill:#0263FF;}
	.st1{font-family:'PalatinoLinotype-Bold';}
	.st2{font-size:172.8271px;}
	.st3{fill:#FD1616;}
	.st4{fill:none;stroke:#000000;stroke-width:0.75;stroke-miterlimit:10;}
	.st5{fill:#FBFB38;}
	.st6{fill:#289E5F;}
</style>
<text transform="matrix(0.9394 0 0 1 9.765625e-04 148.2764)" class="st0 st1 st2">D</text>
<text transform="matrix(0.9394 0 0 1 134.8984 148.2764)" class="st3 st1 st2">e</text>
<text transform="matrix(0.9394 0 0 1 134.8984 148.2764)" class="st4 st1 st2">e</text>
<text transform="matrix(0.9394 0 0 1 216.0625 148.2764)" class="st5 st1 st2">v</text>
<text transform="matrix(0.9394 0 0 1 216.0625 148.2764)" class="st4 st1 st2">v</text>
<text transform="matrix(0.9394 0 0 1 306.3389 148.2764)" class="st0 st1 st2">s</text>
<text transform="matrix(0.9394 0 0 1 306.3389 148.2764)" class="st4 st1 st2">s</text>
<text transform="matrix(0.9394 0 0 1 378.3911 148.2764)" class="st6 st1 st2">h</text>
<text transform="matrix(0.9394 0 0 1 378.3911 148.2764)" class="st4 st1 st2">h</text>
<text transform="matrix(0.9394 0 0 1 477.5918 148.2764)" class="st5 st1 st2">o</text>
<text transform="matrix(0.9394 0 0 1 477.5918 148.2764)" class="st4 st1 st2">o</text>
<text transform="matrix(0.9394 0 0 1 567.8682 148.2764)" class="st3 st1 st2">p</text>
<text transform="matrix(0.9394 0 0 1 567.8682 148.2764)" class="st4 st1 st2">p</text>
</svg>